<?xml version="1.0" encoding="UTF-8"?><svg id="Camada_1" xmlns="http://www.w3.org/2000/svg" xmlns:xlink="http://www.w3.org/1999/xlink" viewBox="0 0 26.68 26.68"><defs><style>.cls-1{clip-path:url(#clippath);}.cls-2{fill:none;}.cls-2,.cls-3,.cls-4{stroke-width:0px;}.cls-3{fill:#000;}.cls-4{fill:rgba(255,255,255,0);}</style><clipPath id="clippath"><rect class="cls-2" width="26.68" height="26.68"/></clipPath></defs><g class="cls-1"><g id="Grupo_de_máscara_215016"><rect id="Retângulo_125472" class="cls-4" width="26.68" height="26.68"/><path id="Caminho_4809912" class="cls-3" d="M18.61,9.1c-4.36,0-7.9,3.54-7.9,7.9s3.54,7.9,7.9,7.9,7.9-3.54,7.9-7.9h0c0-4.36-3.54-7.9-7.9-7.9ZM18.61,23.72c-3.71,0-6.71-3.01-6.71-6.71s3.01-6.71,6.71-6.71h0c3.71,0,6.71,3.01,6.71,6.71s-3.01,6.71-6.71,6.71ZM12.12,24.02c.02.33-.24.61-.57.63H2.92c-1.52,0-2.75-1.25-2.75-2.77V4.52c0-1.52,1.23-2.75,2.75-2.76h11.89c1.52,0,2.75,1.24,2.75,2.76v2.74c-.01.32-.28.57-.59.57-.31,0-.57-.25-.6-.56v-2.75c0-.86-.7-1.57-1.56-1.57H2.92c-.87,0-1.57.71-1.57,1.57v17.36c0,.87.7,1.57,1.57,1.57h8.64c.31.02.55.26.57.57h0ZM6.78,5.41v.75c1.32.17,1.55,1.03,1.58,1.32.03.25-.15.48-.41.51,0,0,0,0,0,0-.25.02-.48-.16-.51-.41-.04-.33-.46-.54-1.13-.54-.48-.07-.93.26-1,.74,0,0,0,0,0,0v.04c-.02.35-.03.68,1.12.94.86.2,1.98.61,1.93,1.85-.01.87-.7,1.59-1.58,1.63v.77c-.02.25-.23.45-.49.43-.23-.01-.42-.2-.43-.43v-.8c-.73-.02-1.34-.55-1.46-1.27-.03-.25.15-.48.4-.52.25-.04.48.14.52.39h0c.02.18.07.55,1.01.55s1.09-.4,1.11-.79c.01-.25.03-.63-1.21-.91-1.32-.31-1.87-.86-1.83-1.85.06-.81.66-1.49,1.46-1.63v-.78c.02-.25.23-.45.49-.43.23.01.42.2.43.43h0ZM9.12,15.81H3.68c-.25.02-.47-.24-.48-.56-.04-.29.15-.56.43-.63.02,0,.03,0,.05,0h5.44c.29.06.47.34.43.63.02.27-.17.51-.43.56h0ZM7.14,19.21c.22.02.39.3.38.63s-.2.58-.42.56h-3.48s-.03,0-.04,0c-.22-.02-.39-.3-.38-.63s.2-.58.42-.56h3.52ZM7.88,18.08H3.62c-.22,0-.4-.27-.4-.59s.18-.59.4-.59h4.26c.22,0,.4.27.4.59h0c0,.33-.18.6-.4.59ZM20.14,17.2c-.45-.22-.94-.34-1.44-.36.99-.09,1.75-.91,1.75-1.91,0-1.07-.86-1.95-1.93-1.96-1.07,0-1.95.86-1.96,1.93,0,1.05.82,1.91,1.86,1.96-1.81.15-3.24,1.61-3.35,3.43-.01.2.05.39.18.54.14.16.35.25.57.25h5.98c.24-.03.42-.25.39-.5l-.03-.18c-.06-1.35-.83-2.57-2.03-3.2ZM17.47,14.93c0-.57.47-1.04,1.04-1.04s1.04.47,1.04,1.04-.47,1.04-1.04,1.04c-.57,0-1.04-.47-1.04-1.04h0ZM16.01,20.18c.16-1.36,1.29-2.4,2.66-2.43.38.02.76.11,1.1.28.81.44,1.35,1.24,1.45,2.15h-5.2Z"/></g></g></svg>