<svg id="Segunda_via_boleto" data-name="Segunda via boleto" xmlns="http://www.w3.org/2000/svg" xmlns:xlink="http://www.w3.org/1999/xlink" width="57" height="57" viewBox="0 0 57 57">
  <defs>
    <clipPath id="clip-path">
      <rect id="Retângulo_4363" data-name="Retângulo 4363" width="57" height="57" fill="#fff" stroke="#707070" stroke-width="1"/>
    </clipPath>
  </defs>
  <g id="Grupo_de_máscara_37" data-name="Grupo de máscara 37" clip-path="url(#clip-path)">
    <g id="_16" data-name="16" transform="translate(8.209 1.372)">
      <g id="Grupo_24615" data-name="Grupo 24615" transform="translate(0 0)">
        <g id="Grupo_23944" data-name="Grupo 23944">
          <path id="Stroke_7220" data-name="Stroke 7220" d="M-174.041,121.6v12.44" transform="translate(180.067 -93.652)" fill="none" stroke="#ff003e" stroke-linecap="round" stroke-linejoin="round" stroke-width="1.5"/>
          <path id="Stroke_7221" data-name="Stroke 7221" d="M-169.845,121.6v12.44" transform="translate(180.388 -93.652)" fill="none" stroke="#ff003e" stroke-linecap="round" stroke-linejoin="round" stroke-width="1.5"/>
          <path id="Stroke_7222" data-name="Stroke 7222" d="M-162.848,121.6v12.44" transform="translate(180.923 -93.652)" fill="none" stroke="#ff003e" stroke-linecap="round" stroke-linejoin="round" stroke-width="1.5"/>
          <path id="Stroke_7223" data-name="Stroke 7223" d="M-155.854,121.6v12.44" transform="translate(181.459 -93.652)" fill="none" stroke="#ff003e" stroke-linecap="round" stroke-linejoin="round" stroke-width="1.5"/>
          <path id="Stroke_7224" data-name="Stroke 7224" d="M-151.645,121.6v12.44" transform="translate(181.781 -93.652)" fill="none" stroke="#ff003e" stroke-linecap="round" stroke-linejoin="round" stroke-width="1.5"/>
          <path id="Stroke_7225" data-name="Stroke 7225" d="M-167.589,96.25v7.988a3.684,3.684,0,0,1-3.617,3.734h-8.424" transform="translate(179.639 -95.592)" fill="none" stroke="#ff003e" stroke-linecap="round" stroke-linejoin="round" stroke-width="1.5"/>
          <path id="Stroke_7226" data-name="Stroke 7226" d="M-179.6,120.508l-.041,19.88a4.942,4.942,0,0,0,4.857,4.987h26.461A4.9,4.9,0,0,0-143.5,140.4V100.618a4.9,4.9,0,0,0-4.822-4.979h-19.262l-12.015,12.4" transform="translate(179.638 -95.639)" fill="none" stroke="#ff003e" stroke-linecap="round" stroke-linejoin="round" stroke-width="1.5"/>
        </g>
        <g id="Grupo_23945" data-name="Grupo 23945" transform="translate(5.679 4.506)">
          <path id="Stroke_7226-2" data-name="Stroke 7226-2" d="M-174.363,145.215c.017,2.757,1.89,4.344,4.561,4.346h26.461a4.9,4.9,0,0,0,4.822-4.979V104.8a4.9,4.9,0,0,0-4.822-4.979" transform="translate(174.363 -99.825)" fill="none" stroke="#ff003e" stroke-linecap="round" stroke-linejoin="round" stroke-width="1.5"/>
        </g>
      </g>
    </g>
  </g>
</svg>
